<svg xmlns="http://www.w3.org/2000/svg" width="1200" height="350" viewBox="0 0 1200 350" role="img" aria-labelledby="title desc">
<title id="title">quitting7oh.org</title>
<desc id="desc">A community field guide to recovery. Guides, reference, calculators, and meetings. Light edition.</desc>
<defs><pattern id="grid" width="24" height="24" patternUnits="userSpaceOnUse"><path d="M24 0H0V24" fill="none" stroke="#dad3c8" stroke-width="0.7"/></pattern></defs>
<rect width="1200" height="350" rx="22" fill="#faf8f3"/>
<rect x="1" y="1" width="1198" height="348" rx="21" fill="none" stroke="#dad3c8" stroke-width="2"/>
<path d="M48 53H1152M48 286H1152" stroke="#dad3c8"/>
<g font-family="Arial, Helvetica, DejaVu Sans, sans-serif" font-size="12" font-weight="700" letter-spacing="2">
<text x="48" y="34" fill="#665d57">THE COMMUNITY FIELD GUIDE</text>
<text x="1152" y="34" text-anchor="end" fill="#8a4d38">READ · BUILD · CONTRIBUTE</text></g>
<rect x="48" y="97" width="106" height="106" rx="29" fill="#e8ded2"/>
<g transform="translate(55 104) scale(1.44)" fill="none" stroke-width="8" stroke-linecap="round" stroke-linejoin="round">
<path d="M20 33V39a12 12 0 0 0 24 0V33" stroke="#29221e"/>
<path d="M32 37V14M23 24L32 11L41 24" stroke="#8a4d38"/></g>
<text x="183" y="150" fill="#29221e" font-family="Georgia, DejaVu Serif, serif" font-size="59" font-weight="700" letter-spacing="-2">quitting<tspan fill="#8a4d38">7</tspan>oh<tspan fill="#665d57" font-size="31" font-weight="400" letter-spacing="0">.org</tspan></text>
<text x="186" y="191" fill="#665d57" font-family="Arial, Helvetica, DejaVu Sans, sans-serif" font-size="21">A community field guide to recovery.</text>
<g font-family="Arial, Helvetica, DejaVu Sans, sans-serif" font-size="13" fill="#526c48" font-weight="700"><text x="49" y="249">COMMUNITY-WRITTEN</text><text x="264" y="249">OPEN TO CONTRIBUTORS</text></g>
<rect x="855" y="77" width="297" height="184" rx="12" fill="#f2ece3"/>
<rect x="855" y="77" width="297" height="184" rx="12" fill="url(#grid)" opacity="0.5"/>
<g transform="translate(912 91) rotate(7 82 74)"><rect x="7" y="7" width="161" height="142" rx="8" fill="#e8ded2" stroke="#dad3c8"/>
<rect width="161" height="142" rx="8" fill="#faf8f3" stroke="#dad3c8"/>
<path d="M18 0V142" stroke="#8a4d38" stroke-width="3"/>
<text x="34" y="37" fill="#8a4d38" font-family="Arial, Helvetica, DejaVu Sans, sans-serif" font-size="10" font-weight="700" letter-spacing="2">FIELD NOTES</text>
<path d="M34 56H135M34 71H117M34 86H130" stroke="#dad3c8" stroke-width="3" stroke-linecap="round"/>
<circle cx="43" cy="113" r="6" fill="#526c48"/><path d="M61 113H116" stroke="#526c48" stroke-width="3" stroke-linecap="round"/></g>
<g font-family="Arial, Helvetica, DejaVu Sans, sans-serif" font-size="14" font-weight="700" letter-spacing="1" fill="#8a4d38">
<text x="48" y="322">GUIDES</text><text x="180" y="322">REFERENCE</text><text x="360" y="322">CALCULATORS</text><text x="565" y="322">MEETINGS</text></g>
<text x="1152" y="322" text-anchor="end" fill="#665d57" font-family="Arial, Helvetica, DejaVu Sans, sans-serif" font-size="13">LIGHT / DARK / YOUR DEVICE</text>
</svg>
